<svg width="80" height="65" viewBox="0 0 80 65" fill="none" xmlns="http://www.w3.org/2000/svg">
<path d="M17.736 9.536H21.72V11H15.24V10.568L19.212 4.544H15.756V3.08H21.708V3.512L17.736 9.536ZM26.2907 3.08H27.9107V11.144H27.3707L22.7867 6.248V11H21.1667V2.936H21.6947L26.2907 7.808V3.08ZM27.4654 7.04C27.4494 5.912 27.8574 4.94 28.6894 4.124C29.5294 3.308 30.5214 2.912 31.6654 2.936C32.8094 2.912 33.8014 3.308 34.6414 4.124C35.4894 4.94 35.9054 5.912 35.8894 7.04C35.9054 8.168 35.4894 9.14 34.6414 9.956C33.8014 10.772 32.8094 11.168 31.6654 11.144C30.5214 11.168 29.5294 10.772 28.6894 9.956C27.8574 9.14 27.4494 8.168 27.4654 7.04ZM34.2214 7.04C34.2214 6.288 33.9774 5.668 33.4894 5.18C33.0094 4.684 32.4054 4.436 31.6774 4.436C30.9414 4.436 30.3334 4.68 29.8534 5.168C29.3734 5.656 29.1334 6.28 29.1334 7.04C29.1334 7.8 29.3734 8.424 29.8534 8.912C30.3334 9.4 30.9414 9.644 31.6774 9.644C32.4054 9.644 33.0094 9.4 33.4894 8.912C33.9774 8.424 34.2214 7.8 34.2214 7.04Z" fill="white"/>
<path d="M51.5577 8.672C51.5577 9.352 51.3137 9.912 50.8257 10.352C50.3377 10.784 49.7137 11 48.9537 11H45.4257V3.08H48.2337C48.9697 3.08 49.5697 3.288 50.0337 3.704C50.5057 4.112 50.7417 4.64 50.7417 5.288C50.7417 5.872 50.5457 6.348 50.1537 6.716C51.0897 7.06 51.5577 7.712 51.5577 8.672ZM48.1017 4.472H46.9857V6.284H48.1017C48.4297 6.284 48.6817 6.204 48.8577 6.044C49.0417 5.884 49.1337 5.66 49.1337 5.372C49.1337 5.092 49.0417 4.872 48.8577 4.712C48.6817 4.552 48.4297 4.472 48.1017 4.472ZM49.9617 8.612C49.9617 8.308 49.8617 8.068 49.6617 7.892C49.4617 7.708 49.1857 7.616 48.8337 7.616H46.9857V9.608H48.8337C49.1857 9.608 49.4617 9.52 49.6617 9.344C49.8617 9.168 49.9617 8.924 49.9617 8.612ZM50.6228 7.04C50.6068 5.912 51.0148 4.94 51.8468 4.124C52.6868 3.308 53.6788 2.912 54.8228 2.936C55.9668 2.912 56.9588 3.308 57.7988 4.124C58.6468 4.94 59.0628 5.912 59.0468 7.04C59.0628 8.168 58.6468 9.14 57.7988 9.956C56.9588 10.772 55.9668 11.168 54.8228 11.144C53.6788 11.168 52.6868 10.772 51.8468 9.956C51.0148 9.14 50.6068 8.168 50.6228 7.04ZM57.3788 7.04C57.3788 6.288 57.1348 5.668 56.6468 5.18C56.1668 4.684 55.5628 4.436 54.8348 4.436C54.0988 4.436 53.4908 4.68 53.0108 5.168C52.5308 5.656 52.2908 6.28 52.2908 7.04C52.2908 7.8 52.5308 8.424 53.0108 8.912C53.4908 9.4 54.0988 9.644 54.8348 9.644C55.5628 9.644 56.1668 9.4 56.6468 8.912C57.1348 8.424 57.3788 7.8 57.3788 7.04ZM60.2543 11V4.544H57.7223V3.08H64.4183V4.544H61.8743V11H60.2543Z" fill="white"/>
<path fill-rule="evenodd" clip-rule="evenodd" d="M30.5532 60.0783C30.5532 60.0783 22.2571 65.128 18.1451 57.409C14.0329 49.6899 22.0406 44.2794 22.0406 44.2794C22.0406 44.2794 21.5717 40.7264 23.4113 38.7245C25.2509 36.7227 29.399 36.2718 29.399 36.2718C29.399 36.2718 30.445 32.3401 33.1503 31.5827C35.8556 30.8252 40.2201 33.2418 40.2201 33.2418C40.2201 33.2418 42.9614 30.8612 47.0735 31.3662C51.1855 31.8712 52.9169 36.9211 52.9169 36.9211C52.9169 36.9211 56.1632 37.8589 56.9568 39.6623C57.7504 41.4659 57.101 44.2794 57.101 44.2794C57.101 44.2794 61.718 47.8865 60.9245 53.0085C60.131 58.1305 54.1433 58.1305 54.1433 58.1305C54.1433 58.1305 52.0692 60.7635 50.0312 61.521C47.9933 62.2786 45.9914 61.1604 45.9914 61.1604C45.9914 61.1604 41.4104 64.1 37.5509 63.8295C33.6914 63.559 30.5532 60.0783 30.5532 60.0783Z" stroke="white" stroke-opacity="0.8" stroke-linejoin="round"/>
<path d="M30.4805 40.4561L32.8878 41.593" stroke="white" stroke-opacity="0.8" stroke-linejoin="round"/>
<path d="M40.3478 33.0879C37.39 35.6849 38.4165 36.9209 38.4165 36.9209C38.4165 36.9209 43.4664 37.3537 44.332 40.095" stroke="white" stroke-opacity="0.8" stroke-linejoin="round"/>
<path d="M46.0625 42.1152C46.0625 42.1152 47.866 44.2073 49.3088 44.063" stroke="white" stroke-opacity="0.8" stroke-linejoin="round"/>
<path d="M50.5341 40.168C55.151 43.1979 50.7505 48.7527 50.7505 48.7527C50.7505 48.7527 47.3598 51.4941 39.7129 44.0636" stroke="white" stroke-opacity="0.8" stroke-linejoin="round"/>
<path d="M30.7416 60.2991C27.7838 55.6099 32.7162 48.9681 32.7162 48.9681C32.7162 48.9681 37.9283 48.896 39.786 50.8438C41.6436 52.7916 40.1466 56.7593 40.1466 56.7593" stroke="white" stroke-opacity="0.8" stroke-linejoin="round"/>
<path d="M22.9785 52.7195C24.2049 47.1647 28.3034 47.299 29.4396 47.5998C30.5759 47.9006 32.2134 49.2374 32.2134 49.2374" stroke="white" stroke-opacity="0.8" stroke-linejoin="round"/>
<path d="M36.7564 37.7148C30.2637 40.8891 32.6261 49.0288 32.6261 49.0288" stroke="white" stroke-opacity="0.8" stroke-linejoin="round"/>
<path d="M45.7637 61.3953C47.0622 59.231 45.9904 56.4717 45.9904 56.4717" stroke="white" stroke-opacity="0.8" stroke-linejoin="round"/>
<path d="M21.9199 44.1914C23.0227 47.1324 26.8017 46.2273 26.8017 46.2273" stroke="white" stroke-opacity="0.8" stroke-linejoin="round"/>
<path d="M54.0423 58.481C55.1244 53.1425 50.752 48.3916 50.752 48.3916" stroke="white" stroke-opacity="0.8" stroke-linejoin="round"/>
<path d="M54.502 46.5878C54.502 46.5878 56.1612 46.4435 57.1712 44.2793" stroke="white" stroke-opacity="0.8" stroke-linejoin="round"/>
<path fill-rule="evenodd" clip-rule="evenodd" d="M57.2612 40.2488C56.6312 38.7088 61 32 61 32C61 32 59.8666 23.9627 59.8265 20.6704C59.823 20.3839 58.8772 22.7455 57.7955 22.9662C56.7137 23.1871 55.654 22.3703 55.4995 21.5533C55.345 20.7365 57.1773 19.6989 57.1773 19.6989C57.1773 19.6989 54.9084 15.4789 55.7851 14.5349C57.2797 12.9252 59.5217 15.1097 59.5217 15.1097C59.5217 15.1097 61.8745 12.6619 62.8559 13.5C63.8373 14.3383 63.4472 18.4626 63.4472 18.4626L63.1822 21.6417C63.1822 21.6417 66 27 64 36.5C62.6439 42.9413 57.1256 43.981 57.1256 43.981C57.1256 43.981 57.9365 41.8994 57.2612 40.2488Z" stroke="white" stroke-opacity="0.8" stroke-linejoin="round"/>
<path fill-rule="evenodd" clip-rule="evenodd" d="M22.1848 40.5543C22.8706 39.0383 19.1216 31.5 19.1216 31.5C19.1216 31.5 19.0815 24.9968 19.1216 21.7045C19.125 21.4182 20.0708 23.7796 21.1526 24.0005C22.2344 24.2212 23.2941 23.4044 23.4486 22.5876C23.6031 21.7707 21.7707 20.7331 21.7707 20.7331C21.7707 20.7331 24.0397 16.513 23.163 15.569C21.6683 13.9594 19.4263 16.1438 19.4263 16.1438C19.4263 16.1438 17.0736 13.696 16.0921 14.5342C15.1108 15.3724 15.5009 19.4968 15.5009 19.4968L15.7659 22.6758C15.7659 22.6758 13.9085 27.6677 14.9998 34.5C16.5242 44.044 21.7901 44.544 21.7901 44.544C21.7901 44.544 21.3517 42.3957 22.1848 40.5543Z" stroke="white" stroke-opacity="0.8" stroke-linejoin="round"/>
<path fill-rule="evenodd" clip-rule="evenodd" d="M0.133812 24.2481C0.133812 24.2481 18.7223 18.4428 38.761 18.2106C58.7997 17.9784 80 23.3259 80 23.3259L79.8427 20.3313C79.8427 20.3313 58.423 15.0539 38.4624 15.3277C18.5017 15.6016 0 21.4266 0 21.4266L0.133812 24.2481Z" fill="white"/>
<path fill-rule="evenodd" clip-rule="evenodd" d="M4.95312 14.6318L4.95893 27.2901L7.00901 27.2783L7.19582 30.0195L9.31406 30.0818V33.7574L11.2452 33.882L11.183 7.03125H9.12713L9.18936 10.9561L6.82208 11.143L7.00901 14.694L4.95312 14.6318Z" fill="white"/>
<path fill-rule="evenodd" clip-rule="evenodd" d="M74.9152 14.2576L74.9094 26.9161L72.8593 26.9043L72.6725 29.6455L70.5542 29.7077V33.3834L68.623 33.508L68.6853 6.65723H70.7412L70.6788 10.5821L73.0462 10.769L72.8593 14.32L74.9152 14.2576Z" fill="white"/>
</svg>
