<svg display='none' xmlns="http://www.w3.org/2000/svg" >

<symbol id="arrow" width="16px" height="9px" viewBox="0 0 16 9" fill="FFF">
<path  fill="#278BFF" d="M8.70711 0.292893C8.31658 -0.097631 7.68342 -0.097631 7.29289 0.292893L0.928932 6.65685C0.538408 7.04738 0.538408 7.68054 0.928932 8.07107C1.31946 8.46159 1.95262 8.46159 2.34315 8.07107L8 2.41421L13.6569 8.07107C14.0474 8.46159 14.6805 8.46159 15.0711 8.07107C15.4616 7.68054 15.4616 7.04738 15.0711 6.65685L8.70711 0.292893ZM9 2V1L7 1V2L9 2Z"/>
</symbol>

<symbol id="messenger" width="48" height="48" viewBox="0 0 48 48" fill="none" > 
<path d="M24 47.9998C37.2548 47.9998 48 37.2547 48 23.9999C48 10.7451 37.2548 0 24 0C10.7452 0 0 10.7451 0 23.9999C0 37.2547 10.7452 47.9998 24 47.9998Z" fill="#B0E1FF"/>
<path d="M11.534 15.4288C8.40527 21.1425 9.59571 28.1447 14.1916 32.5231L14.2968 39.9328L22.3037 47.9396C22.8643 47.9787 23.4298 48 24.0004 48C36.5488 48 46.8463 38.3691 47.9083 26.096L34.0198 12.2075C33.0884 11.2771 32.0117 10.4612 30.799 9.7971C23.9203 6.0305 15.2984 8.55444 11.534 15.4288Z" fill="#85C5ED"/>
<path d="M36.4306 29.062C33.2825 34.811 26.7194 37.5341 20.5965 36.0304L14.2968 39.9329L14.1916 32.5233C9.59571 28.1449 8.40527 21.1427 11.534 15.429C15.2984 8.55476 23.9204 6.03073 30.7989 9.79733C37.672 13.5606 40.1982 22.1818 36.4306 29.062Z" fill="#41A0D7"/>
<path d="M14.3042 26.8011L22.5105 17.9705L26.4799 21.9844L33.8387 17.9705L25.7662 26.8011L22.0646 23.0547L14.3042 26.8011Z" fill="white"/>

</symbol>

<symbol id="viber" width="48" height="48" viewBox="0 0 48 48" fill="none">
<path d="M48 24C48 37.255 37.255 48 24 48C10.745 48 0 37.255 0 24C0 10.745 10.745 0 24 0C37.255 0 48 10.745 48 24Z" fill="#9330B2"/>
<path d="M47.9973 24.2051L35.7864 11.9941C33.6543 9.67493 30.5972 8.21851 27.2057 8.21851H20.7941C14.3663 8.21851 9.13721 13.448 9.13721 19.8757V24.3311C9.13721 27.4028 10.3823 30.3625 12.5316 32.5345V38.421C12.5316 38.8868 12.7316 39.3241 13.0707 39.6284L21.343 47.8528C22.2157 47.9491 23.1019 48 23.9999 48C37.186 48 47.8871 37.3652 47.9973 24.2051Z" fill="#681F7B"/>
<path d="M27.2057 8.21851H20.7941C14.3663 8.21851 9.13721 13.4476 9.13721 19.8754V24.3311C9.13721 27.4025 10.3823 30.3622 12.5316 32.5342V38.4207C12.5316 39 12.8407 39.535 13.342 39.8251C13.5933 39.9701 13.8734 40.0426 14.1536 40.0426C14.4333 40.0426 14.7131 39.9705 14.9636 39.8258L21.621 35.9879H27.2057C33.6334 35.9879 38.8625 30.7588 38.8625 24.3311V19.8754C38.8625 13.4476 33.6334 8.21851 27.2057 8.21851ZM36.3804 24.5134C36.3804 29.4038 32.3792 33.4054 27.4884 33.4054H22.2644L14.0726 38.4207V30.627C12.5554 29.0299 11.6194 26.8766 11.6194 24.5138V19.6926C11.6194 14.8022 15.6206 10.801 20.511 10.801H27.4884C32.3788 10.801 36.3804 14.8022 36.3804 19.6926V24.5134Z" fill="white"/>
<path d="M27.2062 8.21851H24V10.801H27.4889C32.3789 10.801 36.3801 14.8022 36.3801 19.6923V24.5138C36.3801 29.4042 32.3789 33.4054 27.4889 33.4054H24V35.9879H27.2062C33.6335 35.9879 38.863 30.7584 38.863 24.3311V19.8754C38.863 13.4473 33.6335 8.21851 27.2062 8.21851Z" fill="#FFF5CB"/>
<path d="M22.3042 15.4048C22.2723 15.3733 22.2452 15.3359 22.224 15.2934C22.1193 15.0829 22.205 14.8273 22.4155 14.7222C24.6717 13.5983 27.6582 14.2237 29.6775 16.243C31.696 18.2616 32.3219 21.2466 31.1991 23.5021C31.0944 23.7126 30.8387 23.7983 30.6278 23.6936C30.4172 23.5889 30.3315 23.3332 30.4363 23.1227C31.3983 21.1902 30.8384 18.6088 29.0751 16.8451C27.311 15.081 24.7285 14.5218 22.7953 15.485C22.6272 15.5685 22.4302 15.5308 22.3042 15.4048Z" fill="white"/>
<path d="M31.199 23.5025C31.0946 23.7123 30.8383 23.7984 30.6281 23.694C30.4175 23.5885 30.3314 23.3333 30.4365 23.1223C31.3982 21.1899 30.8379 18.6092 29.075 16.8451C27.6581 15.4283 25.7128 14.7888 24 15.0917V14.2296C25.9438 13.9425 28.1038 14.6698 29.6774 16.2427C31.6959 18.262 32.3218 21.247 31.199 23.5025Z" fill="#FFF5CB"/>
<path d="M23.2714 17.2801C23.2373 17.2457 23.2084 17.2054 23.1868 17.1592C23.0868 16.9461 23.1787 16.6927 23.3919 16.5931C24.9428 15.8676 26.9002 16.2953 28.2625 17.6576C29.6244 19.0199 30.0529 20.9759 29.3285 22.5257C29.2285 22.7388 28.9751 22.8307 28.762 22.7311C28.5492 22.6315 28.4573 22.3777 28.5565 22.165C29.13 20.9389 28.7697 19.3697 27.66 18.2601C26.5504 17.1504 24.9805 16.7905 23.7529 17.3647C23.5859 17.4427 23.3944 17.4031 23.2714 17.2801Z" fill="white"/>
<path d="M29.3284 22.5254C29.2288 22.7382 28.9753 22.8301 28.7626 22.7305C28.5498 22.6309 28.4568 22.3774 28.5564 22.1647C29.1302 20.9382 28.7703 19.3694 27.661 18.2601C26.6239 17.2234 25.1858 16.8403 24 17.2629V16.3723C25.4297 15.9911 27.074 16.4679 28.2627 17.6577C29.6254 19.0193 30.0527 20.976 29.3284 22.5254Z" fill="#FFF5CB"/>
<path d="M24.2284 19.1523C24.187 19.1113 24.1537 19.0607 24.1317 19.0025C24.0482 18.7828 24.1588 18.5367 24.3786 18.4532C25.1967 18.1426 26.1675 18.384 26.8519 19.0684C27.5364 19.7529 27.7785 20.7233 27.4683 21.5403C27.3852 21.7604 27.1391 21.871 26.9193 21.7875C26.6992 21.704 26.5886 21.4583 26.6721 21.2382C26.8604 20.7416 26.6904 20.1117 26.2495 19.6708C25.809 19.2299 25.1784 19.0607 24.681 19.2497C24.5192 19.3108 24.3434 19.2673 24.2284 19.1523Z" fill="white"/>
<path d="M24.2284 19.1523C24.187 19.1113 24.1537 19.0607 24.1317 19.0025C24.0482 18.7828 24.1588 18.5367 24.3786 18.4532C25.1967 18.1426 26.1675 18.384 26.8519 19.0684C27.5364 19.7529 27.7785 20.7233 27.4683 21.5403C27.3852 21.7604 27.1391 21.871 26.9193 21.7875C26.6992 21.704 26.5886 21.4583 26.6721 21.2382C26.8604 20.7416 26.6904 20.1117 26.2495 19.6708C25.809 19.2299 25.1784 19.0607 24.681 19.2497C24.5192 19.3108 24.3434 19.2673 24.2284 19.1523Z" fill="#FFF5CB"/>
<path d="M21.1539 18.4051L18.1971 15.4483C17.8214 15.0729 17.2907 14.9847 17.0175 15.2575L16.7319 15.5435C15.3388 16.9362 15.081 18.9668 16.2126 20.3467C17.617 22.0584 19.1796 23.7928 20.6818 25.2375C22.1265 26.7397 23.8609 28.3023 25.5726 29.7067C26.9525 30.8383 28.9831 30.5805 30.3758 29.1878L30.6618 28.9018C30.9346 28.6289 30.8464 28.0979 30.4706 27.7226L27.5139 24.7658C26.8122 24.0638 26.3493 24.1608 26.0761 24.4336C26.0761 24.4336 25.7033 24.8127 25.6352 24.891V24.8899C25.3693 25.1562 24.6959 25.2155 24.0876 24.8346C23.5339 24.4875 22.9608 23.9836 22.4459 23.4734C21.9357 22.9585 21.4318 22.3854 21.0847 21.8317C20.7038 21.2234 20.7631 20.55 21.0294 20.2841H21.0283C21.1066 20.216 21.4857 19.8432 21.4857 19.8432C21.7589 19.57 21.8555 19.1071 21.1539 18.4051Z" fill="white"/>
<path d="M30.6621 28.9013L30.3757 29.1877C28.983 30.5804 26.952 30.8379 25.5725 29.7063C25.0474 29.276 24.5204 28.8299 24 28.3755V24.7782C24.0289 24.7976 24.059 24.8159 24.0879 24.8346C24.6954 25.2154 25.3696 25.1554 25.6355 24.8895V24.8917C25.7032 24.8122 26.0764 24.4339 26.0764 24.4339C26.3492 24.1604 26.8125 24.0637 27.5138 24.7657L30.4706 27.7225C30.8459 28.0979 30.9349 28.6289 30.6621 28.9013Z" fill="#FFF5CB"/>
</symbol>

<symbol id="telegram" width="48" height="48" viewBox="0 0 48 48" fill="none">
<path d="M23.9998 48C37.2545 48 47.9995 37.2548 47.9995 24C47.9995 10.7452 37.2545 0 23.9998 0C10.7451 0 0 10.7452 0 24C0 37.2548 10.7451 48 23.9998 48Z" fill="#41B4E6"/>
<path d="M47.9999 24.0004C47.9999 23.4155 47.9778 22.8361 47.9368 22.2617L37.99 12.3149L10.0096 23.3212L20.7151 34.0268L20.8555 34.5324L21.0373 34.3491L21.038 34.3498L20.8555 34.5324L32.6978 46.3747C41.6528 42.8909 47.9999 34.1874 47.9999 24.0004Z" fill="#0091C8"/>
<path d="M21.6691 27.497L32.5151 35.6859L37.9901 12.3149L10.0096 23.3212L18.5238 26.1414L34.0622 15.7185L21.6691 27.497Z" fill="white"/>
<path d="M18.5239 26.1414L20.8558 34.5325L21.6692 27.497L34.0624 15.7185L18.5239 26.1414Z" fill="#D2D2D7"/>
<path d="M25.1943 30.1582L20.8558 34.5323L21.6693 27.4968L25.1943 30.1582Z" fill="#B9B9BE"/>
</symbol>

<symbol id="whatsapp" width="48" height="48" viewBox="0 0 48 48" fill="none">
<path d="M24 47.9999C37.2548 47.9999 48 37.2547 48 23.9999C48 10.7451 37.2548 0 24 0C10.7452 0 0 10.7451 0 23.9999C0 37.2547 10.7452 47.9999 24 47.9999Z" fill="#75B73B"/>
<path d="M33.7726 14.2339C32.381 13.8859 30.3347 12.684 29.0101 12.2022C23.8384 10.586 16.8889 11.879 14.9494 17.8588C14.7878 18.0204 14.4646 18.0204 14.3029 18.0204C10.4241 22.5456 13.01 28.0406 12.6868 33.0506C12.5764 34.8168 11.6478 36.3785 10.4526 37.6995L20.5103 47.7467C21.6498 47.9126 22.8145 48.0001 24 48.0001C35.8534 48.0001 45.6986 39.4065 47.6481 28.11L33.7726 14.2339Z" fill="#52891D"/>
<path d="M23.3285 10.1669C16.0133 10.5149 10.2406 16.6071 10.2626 23.9304C10.2694 26.1609 10.8079 28.2662 11.7579 30.1268L10.2995 37.2062C10.2206 37.5893 10.566 37.9246 10.9464 37.8344L17.8835 36.191C19.6658 37.0789 21.6676 37.5915 23.7862 37.6239C31.263 37.7381 37.4972 31.8015 37.7305 24.3274C37.9801 16.3158 31.3679 9.78394 23.3285 10.1669ZM31.6059 31.4939C29.5745 33.5254 26.8732 34.6443 24 34.6443C22.3178 34.6443 20.7069 34.2668 19.2126 33.5225L18.2468 33.0412L13.9933 34.0487L14.8885 29.7028L14.4128 28.7707C13.6369 27.2514 13.2435 25.6087 13.2435 23.8878C13.2435 21.0146 14.3624 18.3136 16.3939 16.2819C18.4073 14.2684 21.1525 13.1316 24.0002 13.1316C26.8731 13.1316 29.5744 14.2505 31.6059 16.2819C33.6373 18.3134 34.7562 21.0147 34.7562 23.8876C34.7564 26.7353 33.6194 29.4805 31.6059 31.4939Z" fill="white"/>
<path d="M30.6668 26.8669L28.0058 26.103C27.6562 26.0028 27.2794 26.102 27.0244 26.3617L26.3736 27.0245C26.0993 27.3043 25.6831 27.394 25.3199 27.2471C24.0611 26.7377 21.4131 24.3832 20.7373 23.2059C20.5419 22.8662 20.5743 22.4417 20.8139 22.1314L21.3818 21.3965C21.6044 21.1087 21.6513 20.7217 21.5042 20.3889L20.3847 17.8569C20.1166 17.2506 19.3416 17.0739 18.8353 17.5022C18.0927 18.1304 17.2115 19.0847 17.1046 20.1422C16.9157 22.0066 17.7154 24.3566 20.7385 27.1786C24.2314 30.439 27.0286 30.8694 28.85 30.4283C29.8831 30.1783 30.7086 29.1753 31.2293 28.354C31.5847 27.7937 31.3039 27.05 30.6668 26.8669Z" fill="white"/>
<path d="M33.3756 13.8479L31.2922 15.9833C31.3982 16.0813 31.5037 16.1798 31.6063 16.2825C33.6379 18.314 34.7567 21.0153 34.7567 23.8881C34.7567 26.7358 33.6197 29.4809 31.6063 31.4944C29.5748 33.5259 26.8735 34.6448 24.0004 34.6448C22.3181 34.6448 20.7074 34.2673 19.2129 33.523L18.2471 33.0417L13.9937 34.0492L14.0816 33.6223L10.3153 37.4822C10.3984 37.7319 10.6627 37.9017 10.9466 37.8345L17.8837 36.1911C19.6659 37.079 21.6678 37.5916 23.7863 37.624C31.2632 37.7382 37.4976 31.8016 37.7307 24.3275C37.8596 20.19 36.1582 16.4473 33.3756 13.8479Z" fill="#D1D1D1"/>
</symbol>

</svg>
